<svg width="12" height="12" viewBox="0 0 12 12" fill="none" xmlns="http://www.w3.org/2000/svg">
<path fill-rule="evenodd" clip-rule="evenodd" d="M11.4195 5.25813L5.25986 11.4178C4.88799 11.7901 4.38347 11.9996 3.85723 12H0V8.14278C0.00046327 7.61655 0.209885 7.11203 0.582224 6.74015L6.74189 0.580492C7.51682 -0.193477 8.77221 -0.193477 9.54714 0.580492L11.4195 2.45287C12.1935 3.2278 12.1935 4.4832 11.4195 5.25813ZM1.48093 7.64657C1.3587 7.76981 1.28979 7.93614 1.28906 8.1097L1.32214 10.6768H3.85614C4.02971 10.6761 4.19604 10.6071 4.31927 10.4849L10.4525 4.28555C10.709 4.0275 10.709 3.61073 10.4525 3.35267L8.58009 1.48029C8.32203 1.22377 7.90526 1.22377 7.64721 1.48029L1.48093 7.64657Z" fill="#C5CFE4"/>
</svg>
