<svg width="18" height="16" viewBox="0 0 18 16" fill="none" xmlns="http://www.w3.org/2000/svg">
<path fill-rule="evenodd" clip-rule="evenodd" d="M7.47783 9.14857L7.36328 5.79402L12.6733 0.475843C13.3115 -0.158614 14.3423 -0.158614 14.9806 0.475843L16.1587 1.62948C16.466 1.93641 16.6387 2.3529 16.6387 2.78721C16.6387 3.22151 16.466 3.638 16.1587 3.94493L10.8324 9.26312L7.47783 9.14857ZM13.8273 1.82582C13.7812 1.81804 13.7342 1.81804 13.6882 1.82582H13.6718C13.6193 1.84512 13.5718 1.87586 13.5327 1.91582L9 6.44855L9.08182 7.52855L10.1945 7.56946L14.7273 3.03673C14.8047 2.95992 14.8483 2.85536 14.8483 2.74628C14.8483 2.6372 14.8047 2.53263 14.7273 2.45582L14.1464 1.87491C14.1222 1.85382 14.0945 1.8372 14.0645 1.82582H14.0155H13.9091H13.8273Z" fill="#C5CFE4"/>
<path d="M17.1818 5.72036C16.7299 5.72036 16.3636 6.08667 16.3636 6.53854V13.084C16.3636 13.5359 15.9973 13.9022 15.5455 13.9022H2.45455C2.00268 13.9022 1.63636 13.5359 1.63636 13.084V4.90218C1.63636 4.45031 2.00268 4.084 2.45455 4.084H5.72727C6.17914 4.084 6.54545 3.71768 6.54545 3.26581C6.54545 2.81394 6.17914 2.44763 5.72727 2.44763H2.45455C1.09894 2.44763 0 3.54657 0 4.90218V13.084C0 14.4396 1.09894 15.5385 2.45455 15.5385H15.5455C16.9011 15.5385 18 14.4396 18 13.084V6.53854C18 6.08667 17.6337 5.72036 17.1818 5.72036Z" fill="#C5CFE4"/>
</svg>
