<svg width="22" height="18" viewBox="0 0 22 18" fill="none" xmlns="http://www.w3.org/2000/svg">
<path fill-rule="evenodd" clip-rule="evenodd" d="M4.45703 17.6C3.07632 17.6 1.95703 16.4807 1.95703 15.1C1.95703 13.7193 3.07632 12.6 4.45703 12.6C5.83774 12.6 6.95703 13.7193 6.95703 15.1C6.95703 16.4807 5.83774 17.6 4.45703 17.6ZM4.45703 15.6C4.73094 15.5947 4.95171 15.3739 4.95703 15.1C4.95703 14.8239 4.73317 14.6 4.45703 14.6C4.18089 14.6 3.95703 14.8239 3.95703 15.1C3.95703 15.3761 4.18089 15.6 4.45703 15.6Z" fill="white"/>
<path d="M1.95703 10C1.40475 10 0.957031 10.4477 0.957031 11C0.957031 11.5523 1.40475 12 1.95703 12H11.167L12.487 16.86C12.6334 17.393 13.1841 17.7064 13.717 17.56C14.25 17.4136 14.5634 16.863 14.417 16.33L13.237 12H14.797C15.3477 12.0016 15.8275 11.6252 15.957 11.09L18.237 2H20.457C21.0093 2 21.457 1.55228 21.457 1C21.457 0.447715 21.0093 0 20.457 0H17.607C17.0576 0.00202965 16.5798 0.376891 16.447 0.91L14.177 10H1.95703Z" fill="white"/>
<path fill-rule="evenodd" clip-rule="evenodd" d="M2.61634 9C2.04757 9.003 1.55483 8.6063 1.43634 8.05L0.0263422 1.45C-0.0489703 1.09644 0.0391146 0.727769 0.266118 0.44644C0.493121 0.165111 0.834852 0.00110504 1.19634 0H13.7263C14.0843 0.00704738 14.4204 0.173571 14.6429 0.454094C14.8654 0.734617 14.951 1.09983 14.8763 1.45L13.4663 8.05C13.3479 8.6063 12.8551 9.003 12.2863 9H2.61634ZM11.6563 7L12.7263 2H2.18634L3.25634 7H11.6563Z" fill="white"/>
</svg>
