<svg width="17" height="17" viewBox="0 0 17 17" fill="none" xmlns="http://www.w3.org/2000/svg">
<path fill-rule="evenodd" clip-rule="evenodd" d="M-3.93136e-07 7.45019C9.71105e-05 10.1793 1.58105 12.6613 4.05425 13.815C6.52745 14.9688 9.4451 14.5855 11.5364 12.8321L14.8814 16.1859C15.1041 16.4086 15.4287 16.4955 15.7329 16.414C16.0371 16.3325 16.2747 16.0949 16.3562 15.7907C16.4378 15.4865 16.3508 15.1619 16.1281 14.9392L12.7216 11.559C13.5853 10.3699 14.0495 8.93744 14.0473 7.46775C14.0473 3.58869 10.9027 0.444091 7.02366 0.444091C3.1446 0.444092 -5.61927e-07 3.58869 -3.92368e-07 7.46775L-3.93136e-07 7.45019ZM12.2914 7.45017C12.2914 10.3595 9.93296 12.7179 7.02366 12.7179C4.11436 12.7179 1.75592 10.3595 1.75591 7.45017C1.75591 4.54088 4.11436 2.18243 7.02366 2.18243C8.42075 2.18243 9.76062 2.73742 10.7485 3.72531C11.7364 4.71321 12.2914 6.05308 12.2914 7.45017Z" fill="#B8BACF"/>
</svg>
