<svg width="90" height="90" viewBox="0 0 90 90" fill="none" xmlns="http://www.w3.org/2000/svg">
<g opacity="0.45" filter="url(#filter0_f_27_9715)">
<circle cx="45" cy="45" r="25" fill="url(#paint0_linear_27_9715)"/>
</g>
<circle cx="45" cy="40" r="25" fill="url(#paint1_linear_27_9715)"/>
<path fill-rule="evenodd" clip-rule="evenodd" d="M46.2139 46.1731C46.2139 46.1731 46.5707 46.1342 46.7534 45.9416C46.9206 45.7651 46.9148 45.432 46.9148 45.432C46.9148 45.432 46.8926 43.8768 47.6282 43.6472C48.3532 43.4213 49.2842 45.1512 50.2721 45.8163C51.0184 46.3193 51.5849 46.2092 51.5849 46.2092L54.2249 46.1731C54.2249 46.1731 55.6054 46.0896 54.9509 45.024C54.8968 44.9367 54.5691 44.2355 52.9885 42.795C51.3326 41.2872 51.5549 41.5311 53.5482 38.9226C54.7624 37.3341 55.2477 36.3643 55.0959 35.9497C54.9519 35.553 54.0587 35.6583 54.0587 35.6583L51.087 35.6764C51.087 35.6764 50.8666 35.647 50.7033 35.7428C50.5438 35.8367 50.4403 36.0559 50.4403 36.0559C50.4403 36.0559 49.9705 37.2848 49.3431 38.3305C48.0197 40.5357 47.4909 40.6524 47.2744 40.5158C46.7708 40.196 46.8964 39.2329 46.8964 38.5487C46.8964 36.4108 47.227 35.5198 46.2536 35.2892C45.9307 35.2124 45.6929 35.1621 44.8664 35.1535C43.8059 35.1431 42.9088 35.1573 42.4003 35.4012C42.062 35.5635 41.801 35.9259 41.9605 35.9468C42.1567 35.9724 42.6014 36.0645 42.8373 36.3795C43.1418 36.7866 43.1312 37.6994 43.1312 37.6994C43.1312 37.6994 43.3061 40.2159 42.7223 40.5281C42.322 40.7426 41.773 40.3051 40.5926 38.3039C39.9884 37.2791 39.5322 36.1461 39.5322 36.1461C39.5322 36.1461 39.4442 35.9345 39.2866 35.8206C39.0962 35.683 38.8304 35.6403 38.8304 35.6403L36.0066 35.6583C36.0066 35.6583 35.5823 35.6697 35.4266 35.851C35.2884 36.0113 35.416 36.3444 35.416 36.3444C35.416 36.3444 37.6268 41.422 40.1306 43.9812C42.4264 46.3269 45.0326 46.1731 45.0326 46.1731H46.2139Z" fill="white"/>
<defs>
<filter id="filter0_f_27_9715" x="0" y="0" width="90" height="90" filterUnits="userSpaceOnUse" color-interpolation-filters="sRGB">
<feFlood flood-opacity="0" result="BackgroundImageFix"/>
<feBlend mode="normal" in="SourceGraphic" in2="BackgroundImageFix" result="shape"/>
<feGaussianBlur stdDeviation="10" result="effect1_foregroundBlur_27_9715"/>
</filter>
<linearGradient id="paint0_linear_27_9715" x1="20" y1="45.5556" x2="72.125" y2="45.5556" gradientUnits="userSpaceOnUse">
<stop stop-color="#647AE8"/>
<stop offset="1" stop-color="#54A3F5"/>
</linearGradient>
<linearGradient id="paint1_linear_27_9715" x1="20" y1="40.5556" x2="72.125" y2="40.5556" gradientUnits="userSpaceOnUse">
<stop stop-color="#647AE8"/>
<stop offset="1" stop-color="#54A3F5"/>
</linearGradient>
</defs>
</svg>
